<?xml version="1.0" standalone="no"?>
<!DOCTYPE svg PUBLIC "-//W3C//DTD SVG 20010904//EN"
 "http://www.w3.org/TR/2001/REC-SVG-20010904/DTD/svg10.dtd">
<svg version="1.0" xmlns="http://www.w3.org/2000/svg"
 width="435.000000pt" height="572.000000pt" viewBox="0 0 435.000000 572.000000"
 preserveAspectRatio="xMidYMid meet">

<g transform="translate(0.000000,572.000000) scale(0.100000,-0.100000)"
fill="#000000" stroke="none">
<path d="M2412 5148 c-6 -6 -12 -15 -12 -19 0 -3 -12 -27 -26 -53 -21 -38 -29
-44 -40 -35 -24 20 -17 -57 12 -120 l25 -57 -20 -99 c-12 -54 -21 -102 -21
-107 0 -5 -22 -18 -48 -29 -35 -14 -51 -28 -59 -49 -6 -17 -24 -35 -40 -42
-15 -7 -29 -13 -31 -14 -2 -1 7 -26 20 -56 13 -29 29 -64 35 -78 10 -23 11
-22 9 15 -1 22 -6 46 -10 53 -6 11 0 14 21 11 3 0 10 6 15 15 5 9 14 16 19 16
6 0 7 -6 3 -12 -5 -9 -2 -9 9 1 9 7 17 11 17 7 0 -3 11 -1 24 4 34 12 56 -15
56 -68 0 -23 4 -42 10 -42 5 0 10 10 9 23 0 40 13 112 23 122 6 6 7 -75 3
-225 -3 -129 -10 -239 -15 -244 -9 -9 -15 18 -11 51 1 6 -2 14 -7 17 -4 2 -9
-10 -10 -27 -4 -47 -36 -63 -48 -24 -4 12 -15 28 -25 35 -9 6 -20 25 -24 42
-4 16 -15 32 -26 35 -11 4 -19 16 -20 28 0 12 -3 16 -6 10 -9 -25 -23 -13 -52
46 -29 57 -70 94 -56 51 7 -23 -7 -27 -24 -6 -17 21 -100 37 -124 25 -18 -10
-57 -66 -57 -82 0 -5 14 3 31 17 44 37 99 38 137 3 21 -19 23 -29 20 -75 -3
-30 -12 -60 -21 -69 -15 -15 -18 -13 -38 21 l-21 36 -42 -44 c-66 -70 -115
-91 -221 -92 -148 -3 -153 -3 -169 -19 -8 -8 -21 -15 -29 -15 -8 0 -31 -11
-51 -25 -20 -13 -36 -21 -36 -17 1 10 41 38 68 47 22 6 19 9 -28 31 -45 21
-158 47 -245 57 -25 2 -18 7 45 27 63 21 92 25 185 23 61 0 160 -10 224 -22
125 -23 186 -26 196 -11 3 6 -2 10 -12 10 -22 1 -132 17 -198 29 -253 48 -308
51 -426 21 -43 -11 -112 -36 -154 -55 -41 -18 -75 -31 -75 -28 0 3 9 20 20 38
40 65 142 131 260 170 59 20 284 27 365 13 l40 -7 -32 14 c-98 44 -343 45
-472 0 -41 -13 -99 -39 -129 -56 -30 -16 -56 -28 -59 -26 -2 3 12 24 33 46 31
35 91 79 200 148 13 8 5 8 -28 -1 -40 -12 -105 -44 -208 -104 -14 -8 5 15 41
51 101 98 247 178 413 224 88 25 415 25 501 1 32 -9 61 -15 63 -13 5 5 -121
62 -178 81 -78 24 -235 34 -327 19 -101 -16 -130 -25 -258 -78 -107 -44 -271
-145 -319 -196 -40 -42 -53 -39 -19 4 32 40 116 109 183 148 55 33 46 35 -18
4 -72 -35 -150 -93 -224 -165 -38 -37 -68 -62 -68 -57 0 25 116 181 199 268
64 66 39 58 -46 -16 -79 -68 -186 -198 -220 -267 -121 -246 -169 -473 -138
-653 16 -89 65 -199 135 -304 45 -68 47 -73 24 -73 -12 0 -6 -11 20 -40 31
-35 45 -60 32 -60 -2 0 -38 16 -81 36 -42 19 -79 33 -83 30 -8 -9 27 -44 52
-52 32 -10 67 -53 72 -87 2 -16 12 -48 23 -71 10 -22 24 -65 30 -94 13 -65 13
-65 1 -57 -5 3 -10 2 -10 -3 0 -11 39 -47 44 -41 2 2 8 40 14 84 l9 80 2 -80
c1 -61 4 -76 12 -62 7 12 17 16 31 11 11 -3 58 -3 104 1 l84 7 -20 25 c-26 33
-27 73 -2 73 24 0 59 -39 64 -70 2 -17 10 -26 26 -28 26 -4 28 11 7 48 -17 29
-18 40 -6 40 5 0 17 -20 26 -44 10 -26 25 -46 36 -49 10 -3 19 -1 19 3 0 5 23
6 51 3 49 -6 51 -5 41 14 -7 12 -7 25 -1 34 7 11 9 9 9 -8 0 -14 6 -23 15 -23
8 0 15 5 15 10 0 6 6 10 13 10 7 0 17 10 22 23 8 17 20 23 54 25 26 2 49 -2
60 -11 13 -11 61 -15 91 -7 3 0 -13 7 -35 15 -44 15 -125 98 -125 127 0 9 -4
20 -10 23 -19 12 -10 63 16 94 28 34 45 36 57 7 5 -13 1 -25 -13 -38 -25 -23
-21 -60 13 -120 30 -55 90 -77 214 -79 87 -2 135 -7 211 -24 33 -8 23 17 -13
33 -16 8 -46 14 -65 14 -28 0 -30 2 -12 7 13 3 24 11 25 16 1 6 7 9 12 7 12
-3 -24 26 -39 31 -6 2 -8 7 -5 11 4 4 33 -1 65 -10 52 -15 56 -18 34 -25 -15
-4 -18 -7 -8 -8 28 -2 68 -23 68 -37 0 -10 6 -11 26 -4 24 10 108 1 168 -17
11 -3 16 -1 12 5 -3 6 -25 13 -47 17 -24 4 -37 10 -30 14 7 5 -5 12 -28 20
-28 8 -39 16 -35 26 4 9 -3 16 -19 20 -35 9 -42 42 -11 48 13 2 21 0 17 -6 -3
-5 3 -6 15 -3 25 8 102 -11 102 -24 0 -6 -7 -10 -15 -10 -16 0 -20 -12 -8 -23
3 -4 12 -2 20 4 8 8 13 8 13 1 0 -6 14 -13 30 -17 25 -5 30 -11 25 -26 -5 -13
-2 -19 10 -19 9 0 14 -4 11 -9 -4 -5 3 -7 14 -4 23 6 26 19 8 26 -7 3 2 6 20
6 17 1 32 6 32 11 0 9 -8 11 -35 10 -11 -1 -64 31 -71 42 -7 11 10 9 50 -8 12
-4 17 -4 13 3 -3 5 2 9 11 9 9 0 65 1 125 2 l107 2 1 43 c1 23 4 32 6 20 5
-26 23 -29 55 -10 44 24 49 33 28 52 -11 10 -17 22 -13 28 3 5 10 3 15 -7 11
-20 34 -21 41 -2 3 7 15 16 26 19 12 3 19 1 15 -4 -3 -5 2 -9 10 -9 9 0 13 6
10 15 -9 22 36 28 79 10 48 -20 77 -45 77 -67 0 -19 -10 -23 -25 -9 -13 12
-95 23 -95 13 0 -4 6 -14 13 -22 10 -12 9 -12 -3 -3 -28 19 -80 11 -108 -17
-36 -36 -30 -56 24 -71 24 -7 44 -17 44 -21 0 -4 9 -8 19 -8 11 0 26 -7 35
-15 19 -19 32 -19 40 0 3 8 20 24 38 36 18 12 25 19 16 16 -10 -4 -20 -2 -23
4 -9 14 25 23 38 10 6 -6 23 -11 38 -11 52 0 39 -17 -22 -29 -34 -7 -58 -15
-55 -18 3 -4 1 -12 -5 -20 -9 -10 -8 -13 4 -13 8 0 17 5 19 12 3 9 13 9 39 -2
53 -21 60 -33 14 -25 -38 7 -39 6 -20 -9 28 -22 6 -20 -62 6 -32 12 -61 21
-65 20 -3 -1 -34 -4 -69 -7 -67 -6 -82 -11 -74 -25 7 -12 -59 -9 -66 3 -4 6
-13 6 -25 -1 -18 -10 -17 -11 6 -22 l25 -10 -27 5 c-16 3 -28 1 -28 -5 0 -5 3
-10 8 -10 68 -3 134 -9 153 -15 20 -6 22 -5 12 6 -23 24 -13 31 35 25 26 -3
64 -5 85 -5 20 0 37 -4 37 -9 0 -5 33 -9 74 -9 84 -1 127 -20 119 -53 -3 -11
-9 -20 -13 -20 -4 0 -4 -18 0 -40 5 -25 4 -40 -3 -40 -5 0 -5 -6 2 -14 9 -11
6 -12 -15 -8 -20 4 -25 2 -19 -8 4 -7 18 -10 36 -6 15 3 31 1 34 -3 6 -10 45
-3 45 8 0 4 -6 13 -12 19 -10 10 -10 15 2 22 8 5 23 10 33 10 28 0 33 30 8 49
-27 21 -11 41 32 41 24 0 27 3 18 13 -6 8 -8 17 -4 20 3 4 1 7 -5 7 -7 0 -12
-5 -12 -10 0 -20 -30 -22 -53 -3 -29 22 -25 48 4 32 15 -7 24 -7 34 1 8 7 19
9 25 5 5 -3 10 1 10 9 0 17 12 19 48 10 26 -8 28 -22 5 -40 -10 -7 -15 -15
-12 -18 3 -3 16 3 29 14 12 11 27 17 33 13 6 -4 7 4 3 23 -14 60 -12 67 20 76
36 9 66 37 43 39 -8 1 -18 2 -24 4 -5 1 -16 3 -22 3 -7 1 -13 9 -13 18 0 10 6
14 14 11 10 -4 13 2 12 19 -1 24 -16 35 -16 12 0 -8 -6 -6 -16 4 -17 17 -27
14 -73 -19 -2 -1 1 -8 6 -15 6 -7 7 -21 4 -31 -6 -17 -8 -17 -20 -4 -7 9 -18
14 -26 11 -7 -3 -16 -1 -19 5 -4 6 -18 6 -38 0 -36 -10 -58 2 -58 32 0 10 -4
21 -10 24 -5 3 -10 10 -10 16 0 5 8 4 19 -2 11 -7 16 -19 13 -31 -2 -10 1 -18
7 -18 7 0 9 5 5 11 -4 8 3 9 25 4 17 -4 30 -3 29 2 -2 4 0 9 5 11 4 1 7 -1 6
-5 -1 -10 32 -26 39 -18 4 3 1 9 -5 13 -16 10 -21 48 -5 44 18 -3 15 22 -8 51
-11 14 -20 35 -20 46 0 13 -15 31 -41 48 -34 22 -42 24 -50 12 -8 -12 -13 -10
-29 10 -11 13 -20 19 -20 13 0 -5 20 -28 44 -50 54 -49 58 -81 11 -80 -29 1
-90 40 -79 51 7 7 -35 21 -61 22 -17 0 -20 7 -21 55 0 61 4 80 17 80 5 0 7
-11 3 -25 -7 -28 -4 -29 48 -15 29 8 36 14 31 28 -6 15 -5 15 10 3 9 -7 14
-18 11 -23 -3 -5 2 -18 12 -29 21 -24 49 -26 40 -3 -5 12 -2 15 11 9 43 -17
51 -16 72 13 11 17 21 37 21 45 0 21 -17 31 -23 15 -3 -8 -6 -6 -6 4 -1 12 -6
15 -18 11 -16 -6 -15 -3 2 17 l20 23 -35 -18 c-19 -10 -39 -23 -43 -29 -6 -7
-7 -4 -3 7 6 20 -6 22 -36 6 -26 -14 -86 16 -90 46 -2 12 -9 19 -20 17 -9 -1
-22 6 -27 17 -9 15 -6 22 11 33 29 19 15 40 -26 38 -17 -1 -34 -1 -38 0 -5 1
-11 3 -15 4 -5 2 -20 8 -34 15 -21 10 -31 11 -45 1 -16 -10 -17 -11 -2 -6 20
6 56 -5 57 -16 1 -5 1 -12 1 -17 0 -5 10 -11 22 -13 12 -2 23 -10 25 -18 4
-12 2 -12 -5 -2 -7 10 -14 11 -35 1 -15 -7 -24 -16 -21 -20 3 -5 -2 -6 -11 -3
-18 7 -16 37 4 45 9 3 11 8 4 12 -6 4 -31 -14 -56 -38 -43 -43 -67 -56 -67
-35 0 5 6 13 13 17 6 5 24 22 39 38 l28 31 -31 37 c-19 23 -29 44 -25 54 4 9
-1 21 -11 28 -10 8 -15 17 -11 21 5 4 16 -1 27 -10 28 -25 39 5 28 77 -8 50
-26 54 -24 6 1 -24 -2 -44 -8 -44 -5 0 -10 10 -10 22 1 21 0 21 -30 -4 l-30
-26 -11 84 c-7 46 -16 95 -21 108 l-10 25 -6 -25 c-3 -13 -20 -38 -38 -54
l-31 -30 2 105 c1 58 0 133 -2 168 -2 34 -1 62 4 62 4 0 4 7 1 17 -4 11 -3 14
5 9 7 -4 12 -1 12 8 0 9 5 16 10 16 6 0 10 7 10 16 0 14 -3 14 -15 4 -8 -7
-15 -8 -15 -2 0 14 25 33 33 25 4 -3 7 -1 7 5 0 7 -7 12 -15 12 -13 0 -14 2
-3 14 7 8 16 12 20 9 4 -2 5 4 1 14 -3 10 -2 15 2 10 8 -7 34 49 38 82 1 8
-17 26 -41 40 -24 14 -52 41 -62 58 -11 18 -30 35 -44 39 -22 5 -27 16 -45 96
-26 110 -26 101 3 162 28 58 41 122 26 131 -6 3 -10 1 -10 -6 0 -25 -19 6 -42
69 -19 50 -26 60 -36 50z m38 -79 c0 -5 -4 -9 -10 -9 -5 0 -10 7 -10 16 0 8 5
12 10 9 6 -3 10 -10 10 -16z m0 -53 c0 -3 -4 -8 -10 -11 -5 -3 -10 -1 -10 4 0
6 5 11 10 11 6 0 10 -2 10 -4z m30 -56 c0 -5 -4 -10 -10 -10 -5 0 -10 5 -10
10 0 6 5 10 10 10 6 0 10 -4 10 -10z m-85 -180 c-3 -5 -10 -10 -16 -10 -5 0
-9 5 -9 10 0 6 7 10 16 10 8 0 12 -4 9 -10z m8 -165 c-2 -5 -14 -11 -28 -12
-25 -2 -32 7 -18 21 10 10 48 3 46 -9z m-263 -378 c0 -29 -4 -58 -9 -65 -5 -9
-8 14 -7 56 0 39 4 68 9 65 4 -2 7 -28 7 -56z m-133 -127 c2 -23 -3 -27 -40
-34 -16 -3 -25 -1 -22 5 4 5 15 9 25 9 10 0 22 5 25 10 3 6 -1 10 -10 10 -9 0
-13 5 -10 10 11 17 31 11 32 -10z m223 1 c0 -6 -12 -23 -26 -38 -24 -27 -25
-27 -13 -3 20 41 39 62 39 41z m-789 -52 c19 -7 38 -15 43 -20 16 -14 -144
-81 -204 -85 -66 -4 -96 -24 -130 -87 -20 -38 -34 -50 -70 -64 -63 -23 -67
-29 -41 -57 l24 -25 -26 -12 c-36 -16 -42 -38 -16 -62 34 -32 57 -96 51 -145
-4 -40 -6 -43 -28 -38 -22 6 -22 5 -8 -21 7 -16 14 -40 14 -55 0 -16 5 -28 11
-28 6 0 9 -10 7 -22 -2 -13 -9 -22 -16 -20 -7 1 -12 -10 -12 -28 0 -37 -13
-38 -38 -2 -25 35 -34 65 -34 110 l0 36 -18 -24 -19 -25 -11 30 c-7 17 -14 62
-17 100 -6 80 23 214 58 272 18 29 88 92 145 131 17 11 14 11 -16 6 l-35 -6
19 21 c17 19 18 21 2 21 -9 0 -15 4 -11 9 7 13 152 82 190 91 47 12 148 11
186 -1z m554 2 c-12 -11 -85 -26 -85 -17 0 6 55 24 80 25 9 1 10 -2 5 -8z
m453 -92 c-13 -29 -122 -112 -112 -85 3 8 12 17 20 20 8 3 14 12 14 21 0 18
-5 19 -33 3 -20 -10 -21 -10 -8 6 10 11 22 15 38 11 17 -4 23 -1 23 10 0 9 7
18 15 22 9 3 23 22 32 42 l17 36 4 -28 c2 -15 -3 -41 -10 -58z m-828 54 c0
-10 -4 -14 -8 -8 -4 6 -11 13 -16 18 -5 4 -2 7 7 7 10 0 17 -8 17 -17z m359 2
c-19 -20 -89 -32 -89 -16 0 6 12 11 28 11 15 0 34 5 42 10 23 15 36 12 19 -5z
m23 -31 c-7 -33 -12 -39 -42 -45 -32 -7 -33 -6 -16 7 11 8 23 14 26 14 3 0 12
16 20 35 17 44 23 39 12 -11z m168 31 c-7 -8 -17 -15 -22 -15 -6 0 -5 7 2 15
7 8 17 15 22 15 6 0 5 -7 -2 -15z m-54 -50 c-9 -14 -21 -25 -27 -25 -12 0 -3
17 20 41 23 23 27 14 7 -16z m-510 -1 c-22 -16 -51 -17 -81 -4 -16 7 -12 9 20
9 22 1 47 5 55 11 22 14 28 0 6 -16z m-121 -8 c13 5 16 4 11 -5 -4 -6 -17 -11
-29 -9 -18 2 -21 -1 -19 -22 2 -24 2 -24 -12 -5 -13 18 -13 22 2 38 10 11 18
14 22 7 4 -6 15 -8 25 -4z m1162 -18 c-3 -8 -6 -5 -6 6 -1 11 2 17 5 13 3 -3
4 -12 1 -19z m-1123 -22 c-17 -8 -40 -25 -51 -40 -30 -37 -39 -32 -12 7 29 41
38 47 69 46 24 0 24 0 -6 -13z m163 8 c-3 -3 -12 -4 -19 -1 -8 3 -5 6 6 6 11
1 17 -2 13 -5z m383 1 c0 -2 -10 -9 -22 -15 -22 -11 -22 -10 -4 4 21 17 26 19
26 11z m-825 -15 c-27 -12 -43 -12 -25 0 8 5 22 9 30 9 10 0 8 -3 -5 -9z m67
-12 c-10 -10 -44 0 -37 12 3 5 14 6 26 3 12 -3 17 -9 11 -15z m849 -16 c-6 -2
-11 -15 -11 -28 0 -13 -3 -23 -7 -23 -5 1 -17 1 -28 0 -19 -2 -19 -3 -3 -15
10 -7 15 -16 12 -19 -11 -11 -33 20 -31 43 1 15 14 31 34 43 18 10 34 24 34
30 1 7 4 3 6 -8 3 -10 0 -21 -6 -23z m427 -10 c-7 -15 -15 -31 -20 -36 -4 -6
-8 -15 -8 -20 1 -6 12 3 25 19 l25 30 0 -26 c0 -19 9 -30 38 -44 20 -10 41
-18 45 -17 4 1 14 -4 22 -12 12 -11 10 -13 -11 -13 -34 0 -41 -11 -18 -28 18
-13 16 -14 -23 -15 -32 0 -48 -6 -66 -26 -20 -21 -25 -23 -30 -11 -3 9 1 21 9
27 8 7 14 19 14 26 0 8 5 14 10 14 21 0 9 18 -18 28 -30 10 -88 -10 -77 -28 6
-9 -41 -7 -51 2 -3 4 4 9 15 13 12 3 21 11 21 17 0 5 7 8 15 4 17 -6 50 37 40
54 -3 5 -1 10 4 10 6 0 11 4 11 9 0 22 21 62 30 56 6 -3 5 -16 -2 -33z m-568
23 c0 -7 -63 -45 -75 -45 -5 0 6 11 25 25 34 24 50 30 50 20z m-770 -25 c0 -5
-7 -10 -15 -10 -8 0 -15 5 -15 10 0 6 7 10 15 10 8 0 15 -4 15 -10z m300 -10
c0 -5 -4 -10 -10 -10 -5 0 -10 5 -10 10 0 6 5 10 10 10 6 0 10 -4 10 -10z
m-325 -20 c-3 -5 -11 -10 -16 -10 -6 0 -7 5 -4 10 3 6 11 10 16 10 6 0 7 -4 4
-10z m1146 -15 c-43 -19 -62 -19 -37 0 11 8 31 15 45 15 24 -1 24 -2 -8 -15z
m-1071 -9 c0 -8 -51 -13 -56 -5 -3 5 9 9 25 9 17 0 31 -2 31 -4z m895 -6 c-3
-5 -18 -9 -33 -9 l-27 1 30 8 c17 4 31 8 33 9 2 0 0 -3 -3 -9z m-870 -20 c3
-5 -3 -10 -14 -10 -12 0 -21 5 -21 10 0 6 6 10 14 10 8 0 18 -4 21 -10z m239
-15 c-9 -14 -19 -23 -22 -20 -5 4 26 45 35 45 2 0 -4 -11 -13 -25z m-381 -52
c3 -13 3 -23 1 -23 -6 0 -34 65 -34 77 0 13 27 -31 33 -54z m64 16 c6 -13 15
-37 18 -54 7 -29 7 -29 -10 -10 -14 17 -16 17 -11 3 3 -10 2 -18 -2 -18 -8 0
-52 97 -52 112 0 16 46 -11 57 -33z m209 15 c-11 -8 -31 -14 -45 -14 -23 0
-21 3 14 19 44 20 61 17 31 -5z m-323 10 c9 -9 -4 -35 -14 -28 -5 3 -9 12 -9
20 0 14 12 19 23 8z m-66 -10 c-3 -3 -12 -4 -19 -1 -8 3 -5 6 6 6 11 1 17 -2
13 -5z m227 -19 c25 -38 19 -53 -9 -20 -13 17 -24 33 -25 38 0 15 18 6 34 -18z
m226 15 c0 -5 -5 -10 -11 -10 -5 0 -7 5 -4 10 3 6 8 10 11 10 2 0 4 -4 4 -10z
m-182 -16 c34 -17 40 -29 18 -37 -13 -5 -56 31 -56 46 0 10 3 9 38 -9z m1181
-59 c14 8 42 -6 35 -17 -4 -6 0 -14 7 -20 11 -7 9 -8 -6 -6 -11 2 -20 8 -20
15 0 6 -4 15 -9 20 -6 5 -6 2 -1 -6 6 -11 4 -13 -9 -8 -10 4 -21 7 -24 7 -4 0
-13 10 -21 22 -14 22 -14 22 13 5 15 -10 31 -15 35 -12z m136 -4 c-6 -4 -23
-12 -39 -15 -26 -6 -28 -5 -16 9 7 9 21 13 31 10 15 -5 18 -2 12 12 -5 15 -3
16 8 6 8 -8 9 -16 4 -22z m-935 -6 c-19 -8 -43 -17 -52 -21 -28 -10 -21 -22 8
-16 19 3 25 1 20 -7 -4 -6 -2 -11 5 -11 22 0 -3 -17 -43 -30 -45 -14 -54 -26
-37 -46 15 -19 6 -28 -20 -19 -29 9 -31 63 -4 100 15 20 15 20 9 -2 -4 -12 -2
-24 5 -29 8 -5 9 -3 5 5 -16 25 68 91 114 90 22 0 21 -2 -10 -14z m160 8 c-1
-9 -50 -47 -50 -39 0 3 8 15 17 26 18 20 33 26 33 13z m865 -3 c3 -5 2 -10 -4
-10 -5 0 -13 5 -16 10 -3 6 -2 10 4 10 5 0 13 -4 16 -10z m-1635 -32 c23 -30
36 -83 20 -93 -4 -2 -13 15 -19 38 -7 23 -19 52 -27 65 -21 33 -3 26 26 -10z
m40 7 c7 -8 18 -15 24 -15 8 0 10 -15 7 -42 l-4 -43 -18 41 c-9 23 -22 45 -28
48 -13 9 -15 26 -2 26 5 0 14 -7 21 -15z m749 8 c0 -11 -59 -57 -59 -47 0 4
10 18 22 31 21 23 39 30 37 16z m-819 -33 c0 -5 -5 -10 -11 -10 -5 0 -7 5 -4
10 3 6 8 10 11 10 2 0 4 -4 4 -10z m400 6 c0 -2 -8 -10 -17 -17 -16 -13 -17
-12 -4 4 13 16 21 21 21 13z m419 -15 c-13 -11 -26 -17 -28 -15 -5 5 30 33 43
34 4 0 -2 -9 -15 -19z m748 13 c-3 -3 -12 -4 -19 -1 -8 3 -5 6 6 6 11 1 17 -2
13 -5z m-410 -18 c0 -8 -9 -17 -20 -20 -18 -4 -18 -4 -1 15 21 23 21 23 21 5z
m47 -5 c4 -5 -3 -7 -14 -4 -23 6 -26 13 -6 13 8 0 17 -4 20 -9z m-837 -49
c-48 -49 -58 -72 -32 -72 17 0 20 -16 6 -25 -6 -3 -15 4 -21 15 -13 25 1 85
21 85 8 1 13 7 11 14 -1 7 1 10 6 7 5 -3 18 1 28 9 35 26 29 15 -19 -33z
m1129 13 c18 -13 18 -14 1 -15 -10 0 -25 7 -33 15 -21 21 5 21 32 0z m-1090
-21 c-30 -21 -44 -16 -17 7 13 11 27 17 30 13 3 -3 -3 -12 -13 -20z m1359 16
c-28 -12 -37 -12 -30 0 3 6 16 10 28 9 21 0 21 -1 2 -9z m-615 -22 c0 -13 -23
-5 -28 10 -2 7 2 10 12 6 9 -3 16 -11 16 -16z m-433 -10 c-3 -8 -6 -5 -6 6 -1
11 2 17 5 13 3 -3 4 -12 1 -19z m33 -2 c0 -8 -4 -18 -10 -21 -5 -3 -10 3 -10
14 0 12 5 21 10 21 6 0 10 -6 10 -14z m61 -28 c-6 -18 -25 -27 -92 -44 -73
-18 -179 -66 -179 -81 0 -3 24 9 54 25 29 17 90 39 135 50 86 20 115 15 34 -6
-71 -19 -186 -63 -204 -78 -9 -8 -18 -11 -22 -8 -9 9 -27 -33 -21 -50 3 -9 1
-16 -4 -16 -6 0 -14 9 -17 21 -5 15 -10 18 -18 10 -15 -15 -30 -14 -21 2 4 6
-2 3 -14 -7 -29 -25 -41 -13 -16 15 68 77 183 137 273 143 74 5 75 6 67 13 -3
4 4 13 16 20 33 18 38 16 29 -9z m244 12 c3 -5 2 -10 -4 -10 -5 0 -13 5 -16
10 -3 6 -2 10 4 10 5 0 13 -4 16 -10z m355 -5 c0 -17 -15 -35 -30 -35 -28 0
-53 -36 -48 -70 3 -19 1 -29 -6 -27 -18 6 -18 64 -2 99 13 27 22 33 51 35 19
1 35 0 35 -2z m-959 -21 c-18 -8 -36 -13 -39 -10 -6 7 37 25 58 25 8 -1 0 -7
-19 -15z m-183 -13 c12 -6 22 -19 21 -29 0 -14 -2 -14 -6 -2 -8 21 -24 30 -55
30 -16 0 -28 4 -28 9 0 12 39 8 68 -8z m1289 13 c-3 -3 -12 -4 -19 -1 -8 3 -5
6 6 6 11 1 17 -2 13 -5z m288 -13 c-4 -13 0 -23 12 -30 24 -14 -2 -14 -29 0
-19 10 -19 11 -1 29 23 24 26 24 18 1z m-141 -7 c3 -8 2 -12 -4 -9 -6 3 -10
10 -10 16 0 14 7 11 14 -7z m-235 -15 c17 -6 31 -15 31 -20 0 -4 -7 -6 -15 -3
-8 4 -15 1 -15 -5 0 -6 -5 -11 -11 -11 -5 0 -7 5 -4 11 4 6 -2 13 -14 16 -12
3 -21 9 -21 14 0 12 10 11 49 -2z m71 -14 c-13 -15 -13 -16 27 -19 22 -2 19
-21 -4 -24 -31 -5 -51 -31 -32 -43 11 -7 11 -9 -4 -9 -11 0 -22 -12 -29 -31
-9 -27 -12 -29 -20 -14 -6 9 -8 25 -5 36 3 12 0 19 -9 19 -8 0 -14 5 -14 11 0
7 10 9 25 7 31 -6 65 26 47 44 -19 19 -14 38 9 38 18 0 19 -2 9 -15z m-1138
-30 c-78 -37 -94 -52 -34 -31 66 23 65 5 -3 -35 l-67 -39 -32 27 c-17 14 -46
32 -65 40 -18 8 -31 17 -27 20 3 3 19 0 35 -7 33 -13 66 -7 55 11 -4 7 2 7 17
-1 17 -10 24 -10 27 -1 2 6 7 9 11 7 4 -3 34 6 67 19 88 36 99 30 16 -10z
m364 0 c-11 -8 -31 -15 -45 -15 -14 0 -46 -9 -70 -20 -50 -23 -66 -20 -28 5
26 17 108 42 142 43 20 1 20 1 1 -13z m-749 -1 c-3 -4 3 -18 13 -32 11 -13 20
-30 20 -36 0 -6 -5 -4 -10 4 -7 11 -10 6 -10 -20 0 -24 -3 -31 -9 -21 -7 11
-10 10 -14 -5 -2 -10 -5 8 -6 42 -1 55 3 74 17 74 3 0 2 -3 -1 -6z m1014 -24
c11 0 11 -2 -1 -10 -19 -12 -31 -12 -49 -1 -13 8 -13 12 -1 26 13 15 15 15 26
1 6 -9 17 -16 25 -16z m407 21 c11 -6 9 -9 -5 -13 -12 -3 -20 0 -20 8 0 16 6
17 25 5z m330 -11 c4 -12 3 -13 -10 -2 -9 7 -24 10 -34 6 -16 -5 -16 -4 -4 5
19 14 42 10 48 -9z m-513 0 c3 -5 15 -10 26 -10 10 0 19 -5 19 -11 0 -6 -6 -9
-14 -6 -18 7 -12 -89 9 -140 18 -43 18 -42 3 -39 -25 3 -37 17 -44 49 -6 27
-8 29 -14 12 -5 -15 -10 -10 -23 30 -21 61 -22 95 -2 95 9 0 12 -6 9 -15 -4
-8 -3 -31 0 -50 5 -25 11 -33 22 -28 10 4 12 12 8 27 -4 11 -7 33 -6 49 2 18
-3 27 -12 27 -8 0 -18 5 -21 10 -3 6 3 10 14 10 11 0 23 -4 26 -10z m140 -10
c3 -5 2 -10 -4 -10 -5 0 -13 5 -16 10 -3 6 -2 10 4 10 5 0 13 -4 16 -10z
m-626 -19 c19 -12 5 -30 -18 -24 -10 3 -21 0 -25 -5 -3 -5 11 -13 32 -17 42
-8 62 -21 62 -41 0 -22 -20 -17 -46 11 -14 15 -29 22 -38 19 -28 -11 -18 -20
62 -60 67 -33 74 -39 50 -42 -38 -5 -35 -18 7 -32 38 -12 40 -32 2 -23 -22 5
-22 5 -2 -10 24 -19 17 -21 -22 -6 -19 7 -24 12 -14 18 10 6 9 10 -4 14 -9 4
-14 3 -11 -2 7 -11 -60 -20 -75 -10 -6 3 6 10 26 13 l37 7 -31 17 c-28 15 -43
41 -20 35 17 -5 9 7 -32 52 -45 49 -73 56 -109 27 -22 -18 -22 -18 -4 -60 10
-23 26 -42 34 -42 12 0 12 -2 2 -9 -10 -6 -9 -10 7 -14 12 -3 21 -11 21 -17 0
-8 -9 -10 -27 -5 -73 21 -111 -5 -58 -39 23 -15 30 -15 80 -2 30 8 55 10 55 6
0 -5 -6 -11 -12 -14 -7 -3 -1 -4 15 -2 17 2 27 -1 27 -9 0 -8 -24 -15 -66 -20
-39 -4 -67 -12 -70 -20 -6 -15 -52 -6 -56 10 -1 6 -8 16 -15 23 -7 7 -16 25
-19 40 -3 15 -17 37 -31 48 l-25 21 53 -5 c37 -3 50 -2 45 7 -4 6 -1 11 6 11
10 0 9 3 -2 10 -8 5 -11 12 -7 16 4 4 2 13 -4 21 -6 7 -8 13 -3 13 5 0 3 4 -5
9 -11 7 -9 10 8 16 11 3 21 10 21 15 0 12 57 41 87 45 12 1 23 -2 23 -6 0 -5
-10 -9 -22 -10 -22 -1 -22 -1 2 -9 38 -12 50 -11 50 3 0 29 32 45 59 28z m895
0 c19 -7 19 -8 1 -15 -12 -4 -24 -1 -34 9 -13 13 -13 15 -1 14 8 0 24 -4 34
-8z m-284 -11 c0 -5 -2 -10 -4 -10 -3 0 -8 5 -11 10 -3 6 -1 10 4 10 6 0 11
-4 11 -10z m57 4 c-3 -3 -12 -4 -19 -1 -8 3 -5 6 6 6 11 1 17 -2 13 -5z m-399
-30 c41 -5 52 -10 50 -23 -4 -19 -53 -17 -110 6 -41 16 -52 39 -15 30 12 -3
46 -9 75 -13z m343 6 c5 0 8 -10 8 -22 -1 -17 -2 -19 -6 -5 -2 9 -11 17 -18
17 -8 0 -17 5 -21 12 -5 8 -2 9 10 5 10 -4 22 -7 27 -7z m214 0 c3 -5 1 -10
-4 -10 -6 0 -11 5 -11 10 0 6 2 10 4 10 3 0 8 -4 11 -10z m111 -11 c3 -5 1 -9
-5 -9 -17 0 -41 12 -41 20 0 10 38 1 46 -11z m-1488 -6 c21 -9 38 -17 38 -17
1 -1 5 -11 8 -23 7 -20 2 -19 -46 13 -29 20 -55 38 -57 40 -11 10 24 2 57 -13z
m1334 10 c-6 -2 -9 -10 -6 -15 4 -7 2 -8 -5 -4 -13 9 -5 26 12 25 9 0 8 -2 -1
-6z m-95 -35 c-3 -7 -5 -2 -5 12 0 14 2 19 5 13 2 -7 2 -19 0 -25z m-1107 7
c-13 -16 -40 -20 -40 -7 0 14 12 22 33 22 16 0 17 -3 7 -15z m-223 -15 c5 -19
6 -20 20 -3 10 13 13 14 10 3 -2 -8 2 -23 11 -32 10 -12 11 -18 4 -18 -7 0
-12 4 -12 9 0 5 -12 11 -27 13 -20 2 -29 9 -31 26 -4 27 18 29 25 2z m1408 0
c8 0 16 -4 19 -9 3 -5 -11 -9 -32 -8 -20 0 -29 2 -20 4 9 2 16 10 14 16 -1 7
-1 9 1 5 3 -5 11 -8 18 -8z m-1745 -23 c0 -5 -4 -5 -10 -2 -5 3 -10 14 -10 23
0 15 2 15 10 2 5 -8 10 -19 10 -23z m1210 23 c3 -1 8 -2 13 -1 4 0 7 -4 7 -10
0 -6 -9 -8 -21 -4 -13 4 -27 0 -40 -11 -18 -16 -19 -16 -13 -1 3 10 1 17 -6
17 -6 0 -9 4 -6 8 4 7 53 9 66 2z m-920 -20 c0 -4 -9 -6 -21 -3 -15 4 -17 8
-8 14 14 8 29 3 29 -11z m990 10 c9 -6 10 -10 3 -10 -6 0 -18 -3 -27 -6 -11
-4 -16 -1 -16 10 0 18 17 21 40 6z m830 0 c0 -5 -7 -7 -15 -4 -8 4 -15 8 -15
10 0 2 7 4 15 4 8 0 15 -4 15 -10z m-2080 -21 c0 8 2 12 5 9 3 -3 1 -18 -5
-33 -13 -33 -32 -22 -23 14 4 17 8 19 14 9 7 -11 9 -10 9 1z m1604 -25 c4 -19
10 -43 13 -52 4 -12 3 -14 -5 -7 -6 6 -17 29 -25 53 -12 33 -12 42 -2 42 7 0
16 -16 19 -36z m-39 -21 c8 -27 9 -46 3 -55 -8 -10 -9 -9 -4 5 3 10 0 17 -8
17 -16 0 -26 22 -26 57 0 37 21 23 35 -24z m-1021 22 c3 -8 2 -15 -2 -16 -4 0
-17 -2 -29 -5 -27 -5 -30 11 -5 25 23 14 29 13 36 -4z m1596 3 c0 -5 9 -8 19
-8 13 0 23 -11 31 -35 16 -48 6 -58 -36 -35 -39 23 -86 28 -66 8 15 -15 15
-28 1 -28 -5 0 -7 5 -4 10 3 6 -4 10 -17 10 -36 0 -68 11 -62 21 3 5 18 9 35
9 16 0 29 5 29 10 0 6 8 10 18 10 10 1 3 7 -15 15 -18 8 -33 15 -33 17 0 2 22
3 50 3 27 0 50 -3 50 -7z m104 -4 c6 -15 4 -15 -11 -3 -10 7 -20 15 -22 16 -2
2 3 3 11 3 9 0 19 -7 22 -16z m-957 -7 c-5 -17 -37 -21 -51 -6 -8 9 -8 10 2 5
6 -4 12 -3 12 1 0 5 9 9 21 10 12 1 19 -3 16 -10z m-1233 -24 c-9 -37 -14 -44
-25 -38 -13 9 -11 39 3 53 20 20 29 14 22 -15z m1331 17 c3 -5 2 -10 -4 -10
-5 0 -13 5 -16 10 -3 6 -2 10 4 10 5 0 13 -4 16 -10z m363 -11 c-19 -13 -28
-11 -28 5 0 9 7 12 21 9 16 -4 17 -8 7 -14z m542 1 c0 -5 -2 -10 -4 -10 -3 0
-8 5 -11 10 -3 6 -1 10 4 10 6 0 11 -4 11 -10z m-1910 -8 c0 -5 -13 -18 -30
-30 -16 -12 -33 -34 -36 -48 -5 -19 -9 -22 -15 -12 -14 22 -10 34 20 67 27 29
61 42 61 23z m1283 -11 c-4 -3 -11 -10 -15 -15 -5 -5 -8 0 -8 12 0 15 4 20 16
15 9 -3 12 -9 7 -12z m-548 -1 c3 -5 -1 -10 -9 -10 -8 0 -18 5 -21 10 -3 6 1
10 9 10 8 0 18 -4 21 -10z m-846 -17 c-7 -10 -15 -20 -16 -22 -2 -2 -3 5 -3
17 0 14 6 22 16 22 14 0 15 -3 3 -17z m1578 1 c-3 -3 -12 -4 -19 -1 -8 3 -5 6
6 6 11 1 17 -2 13 -5z m-1464 -11 c4 -3 -2 -13 -14 -21 -24 -17 -37 -9 -19 13
14 16 23 19 33 8z m158 -10 c13 -16 12 -17 -3 -4 -17 13 -22 21 -14 21 2 0 10
-8 17 -17z m1349 7 c0 -5 -4 -10 -10 -10 -5 0 -10 5 -10 10 0 6 5 10 10 10 6
0 10 -4 10 -10z m62 -14 c11 -16 10 -23 -4 -23 -7 0 -21 -4 -31 -8 -14 -6 -16
-3 -13 16 3 13 5 27 5 31 1 10 34 -3 43 -16z m-832 -6 c-14 -4 -31 -4 -39 -2
-22 8 19 20 44 14 18 -5 18 -6 -5 -12z m-700 -10 c0 -5 -8 -10 -17 -11 -12 -1
-9 -4 7 -8 l25 -7 -27 -18 c-32 -21 -35 -46 -12 -81 22 -33 1 -32 -25 2 -15
18 -19 33 -14 47 4 12 8 33 9 49 1 15 2 29 3 32 2 10 51 5 51 -5z m1570 1 c0
-6 -4 -12 -8 -15 -5 -3 -9 1 -9 9 0 8 4 15 9 15 4 0 8 -4 8 -9z m-2015 -82 c8
-23 15 -51 14 -63 0 -12 -6 -2 -14 23 -8 24 -18 47 -23 50 -5 3 -12 22 -16 41
-6 34 -6 34 9 13 9 -12 22 -41 30 -64z m304 65 c6 4 11 0 11 -9 0 -12 -5 -15
-16 -11 -9 3 -18 6 -20 6 -2 0 -4 8 -4 18 0 13 2 14 9 3 5 -7 14 -10 20 -7z
m2051 -4 c12 -23 -2 -27 -20 -5 -7 8 -16 12 -21 9 -5 -3 -9 0 -9 5 0 19 39 12
50 -9z m70 -10 c0 -5 -5 -10 -11 -10 -5 0 -7 5 -4 10 3 6 8 10 11 10 2 0 4 -4
4 -10z m-1141 -36 c6 -6 -40 -5 -66 2 -13 4 -23 10 -23 14 0 8 80 -6 89 -16z
m-334 -3 c3 -6 -10 -7 -32 -4 -50 8 -55 13 -10 13 20 0 38 -4 42 -9z m1224
-56 c15 -5 20 -10 13 -17 -6 -6 -17 -6 -31 2 -12 6 -26 8 -31 5 -6 -3 -10 1
-10 10 0 11 6 15 18 11 9 -2 28 -7 41 -11z m-2122 -37 c-3 -8 -6 -5 -6 6 -1
11 2 17 5 13 3 -3 4 -12 1 -19z m133 12 c-20 -13 -33 -13 -25 0 3 6 14 10 23
10 15 0 15 -2 2 -10z m290 -21 c0 -6 -4 -7 -10 -4 -5 3 -10 11 -10 16 0 6 5 7
10 4 6 -3 10 -11 10 -16z m1775 -39 c3 -5 -1 -10 -10 -10 -9 0 -13 5 -10 10 3
6 8 10 10 10 2 0 7 -4 10 -10z"/>
<path d="M1600 3161 c0 -10 9 -29 21 -42 l20 -24 -14 25 c-8 14 -13 33 -12 43
2 9 -1 17 -6 17 -5 0 -9 -9 -9 -19z"/>
<path d="M1648 3073 c7 -3 16 -2 19 1 4 3 -2 6 -13 5 -11 0 -14 -3 -6 -6z"/>
<path d="M2023 4363 c9 -2 23 -2 30 0 6 3 -1 5 -18 5 -16 0 -22 -2 -12 -5z"/>
<path d="M2232 4320 c0 -19 2 -27 5 -17 2 9 2 25 0 35 -3 9 -5 1 -5 -18z"/>
<path d="M2371 4323 c0 -4 4 -17 9 -28 8 -19 9 -19 9 2 1 12 -3 25 -9 28 -5 3
-10 3 -9 -2z"/>
<path d="M2371 4164 c0 -11 3 -14 6 -6 3 7 2 16 -1 19 -3 4 -6 -2 -5 -13z"/>
<path d="M3002 3804 c-7 -13 -28 -34 -47 -45 -19 -12 -35 -25 -35 -30 0 -4 -8
-6 -17 -3 -15 5 -15 4 -3 -4 8 -6 18 -8 22 -6 4 3 8 1 8 -4 0 -6 15 -16 33
-23 17 -7 35 -14 40 -17 4 -2 7 3 7 11 0 9 -10 19 -22 23 -23 7 -38 21 -38 38
0 5 3 7 6 3 4 -3 13 0 21 8 23 23 33 18 27 -15 -5 -23 -3 -30 10 -30 13 0 16
11 16 54 0 62 -11 78 -28 40z"/>
<path d="M3222 3551 c-9 -25 -8 -30 9 -34 16 -4 19 0 19 29 0 42 -14 44 -28 5z"/>
<path d="M2987 3404 c7 -3 10 -11 7 -19 -5 -13 0 -16 56 -30 24 -6 25 -6 5 10
-11 9 -20 21 -20 28 0 7 -13 13 -30 14 -16 1 -25 0 -18 -3z"/>
<path d="M3100 3321 c0 -10 30 -24 37 -17 3 2 -5 9 -16 16 -12 6 -21 7 -21 1z"/>
<path d="M2790 3290 c0 -5 5 -10 10 -10 6 0 10 5 10 10 0 6 -4 10 -10 10 -5 0
-10 -4 -10 -10z"/>
<path d="M721 3223 c7 -10 15 -20 16 -22 2 -2 3 3 3 11 0 9 -7 19 -16 22 -15
6 -15 4 -3 -11z"/>
<path d="M3436 3204 c-4 -15 -2 -32 3 -37 8 -8 11 0 11 26 0 44 -5 47 -14 11z"/>
<path d="M2625 3170 c-4 -6 -11 -8 -16 -5 -5 4 -9 -1 -9 -9 0 -8 4 -17 9 -20
16 -10 40 5 38 25 -1 21 -12 25 -22 9z"/>
<path d="M756 3157 c3 -10 9 -15 12 -12 3 3 0 11 -7 18 -10 9 -11 8 -5 -6z"/>
<path d="M2488 3123 c7 -3 16 -2 19 1 4 3 -2 6 -13 5 -11 0 -14 -3 -6 -6z"/>
<path d="M2555 3108 c40 -21 95 -40 95 -32 0 12 -84 54 -107 54 -27 -1 -27 -2
12 -22z"/>
<path d="M2400 3103 c0 -7 8 -13 18 -14 15 0 14 -2 -3 -10 -15 -7 -7 -8 29 -5
27 2 52 10 57 17 11 18 10 18 -49 22 -39 3 -52 0 -52 -10z"/>
<path d="M781 3100 c0 -8 4 -22 9 -30 12 -18 12 -2 0 25 -6 13 -9 15 -9 5z"/>
<path d="M2570 3050 c-12 -8 -10 -10 8 -10 13 0 20 4 17 10 -7 12 -6 12 -25 0z"/>
<path d="M2362 3021 c-15 -9 110 -51 148 -50 20 1 18 3 -10 10 -73 19 -115 33
-120 41 -3 4 -11 3 -18 -1z"/>
<path d="M2028 3003 c7 -3 16 -2 19 1 4 3 -2 6 -13 5 -11 0 -14 -3 -6 -6z"/>
<path d="M2100 3000 c-24 -8 -24 -8 7 -9 17 -1 35 4 38 9 7 11 -9 11 -45 0z"/>
<path d="M2173 2993 c9 -2 25 -2 35 0 9 3 1 5 -18 5 -19 0 -27 -2 -17 -5z"/>
<path d="M1486 2972 c-7 -12 11 -27 44 -35 30 -8 161 10 174 23 12 12 -39 8
-66 -4 -10 -5 -26 -5 -35 -1 -21 9 -25 10 -74 20 -21 4 -39 3 -43 -3z"/>
<path d="M2548 2963 c6 -2 18 -2 25 0 6 3 1 5 -13 5 -14 0 -19 -2 -12 -5z"/>
<path d="M1460 2940 c-12 -8 -10 -10 8 -10 13 0 20 4 17 10 -7 12 -6 12 -25 0z"/>
<path d="M2718 2943 c7 -3 16 -2 19 1 4 3 -2 6 -13 5 -11 0 -14 -3 -6 -6z"/>
<path d="M3335 2930 c3 -5 8 -10 11 -10 2 0 4 5 4 10 0 6 -5 10 -11 10 -5 0
-7 -4 -4 -10z"/>
<path d="M2748 2913 c7 -3 16 -2 19 1 4 3 -2 6 -13 5 -11 0 -14 -3 -6 -6z"/>
<path d="M1765 2897 c-6 -13 -11 -15 -21 -7 -7 6 -28 10 -46 8 l-33 -4 30 -7
c17 -5 44 -15 61 -23 35 -18 177 -17 171 1 -2 5 -13 11 -25 13 -12 2 -20 7
-17 12 3 5 1 11 -5 15 -5 3 -10 -1 -10 -10 0 -13 -4 -14 -21 -4 -12 6 -32 9
-45 6 -13 -2 -25 1 -27 7 -3 6 -8 3 -12 -7z m58 -24 c-7 -2 -21 -2 -30 0 -10
3 -4 5 12 5 17 0 24 -2 18 -5z"/>
<path d="M1910 2902 c0 -34 90 -56 148 -37 28 9 28 20 0 22 -13 1 -24 7 -26
13 -4 12 -122 14 -122 2z"/>
<path d="M3245 2901 c-6 -11 9 -23 19 -14 9 9 7 23 -3 23 -6 0 -12 -4 -16 -9z"/>
<path d="M1534 2892 c5 -9 -14 -12 -70 -12 l-77 0 6 -35 c3 -19 1 -37 -4 -40
-5 -4 -9 11 -9 32 l0 38 -51 -4 c-35 -2 -47 -6 -38 -12 11 -7 9 -9 -6 -9 -12
0 -27 6 -34 13 -11 10 -12 7 -6 -13 10 -34 8 -33 65 -34 74 -2 54 -20 -23 -21
-69 -1 -98 -11 -59 -22 12 -3 22 -10 22 -15 0 -17 -44 4 -77 36 -49 46 -45 75
4 36 31 -24 63 -26 63 -4 0 8 -4 12 -10 9 -5 -3 -26 1 -45 11 -44 20 -123 12
-92 -11 17 -12 14 -45 -5 -45 -5 0 -6 5 -3 10 3 6 2 10 -3 10 -5 0 -12 10 -15
22 -4 12 -9 19 -13 15 -4 -3 1 -22 10 -41 10 -21 14 -45 10 -64 -4 -19 -1 -32
7 -37 9 -6 11 -2 7 13 -4 12 -2 20 3 16 11 -7 12 -44 1 -44 -11 0 -72 69 -72
81 0 5 -7 9 -15 9 -18 0 -19 -22 -4 -53 9 -19 7 -18 -10 3 -11 14 -23 21 -27
17 -21 -20 118 -123 149 -111 8 3 18 0 22 -7 6 -8 -1 -10 -23 -7 -25 4 -29 2
-21 -9 6 -7 15 -10 20 -7 5 3 8 1 7 -5 -2 -6 11 -20 28 -31 25 -16 33 -18 37
-7 3 9 -2 13 -17 13 -25 -1 -30 34 -6 42 12 4 13 3 3 -10 -7 -8 -10 -18 -6
-21 3 -4 12 1 19 11 9 11 13 12 14 4 0 -7 10 -17 23 -22 l22 -9 -22 0 c-13 -1
-23 -7 -23 -15 0 -19 17 -29 25 -16 5 8 11 8 20 0 8 -7 20 -8 26 -4 9 5 11 1
7 -14 -6 -22 13 -32 62 -32 l25 0 -26 23 c-14 12 -31 30 -38 40 -23 30 6 19
48 -18 25 -23 45 -33 55 -29 9 3 13 10 10 15 -3 5 5 9 18 9 21 1 21 2 5 11
-10 6 -32 8 -50 5 l-32 -6 35 14 c19 8 45 15 58 15 32 1 27 39 -8 55 -8 3 -3
4 11 1 16 -3 31 1 38 9 6 7 22 11 36 8 28 -5 29 -3 15 32 -6 17 -17 26 -32 27
l-23 0 23 11 c25 13 24 34 -2 32 -9 -1 -16 2 -16 7 0 5 -11 9 -25 9 -27 0 -33
-14 -11 -27 13 -8 36 -45 36 -60 0 -4 -23 -6 -51 -4 -54 3 -81 23 -114 83 -23
42 0 42 28 0 23 -35 28 -38 62 -34 l36 4 -20 20 c-12 10 -21 29 -21 41 0 18 2
19 10 7 6 -10 10 -11 10 -2 0 6 9 12 20 12 13 0 20 7 20 20 0 11 8 23 18 26
69 24 84 36 60 50 -7 4 -8 3 -4 -4z m-84 -57 c0 -14 -4 -25 -9 -25 -5 0 -11
11 -13 25 -4 17 -1 25 8 25 8 0 14 -11 14 -25z m-320 -35 c0 -5 -2 -10 -4 -10
-3 0 -8 5 -11 10 -3 6 -1 10 4 10 6 0 11 -4 11 -10z m241 -52 c11 -21 11 -22
-4 -9 -10 7 -17 17 -17 22 0 15 9 10 21 -13z m-85 -45 c-3 -7 0 -13 7 -13 7 0
20 -9 30 -20 9 -11 13 -20 7 -20 -5 0 -12 5 -16 11 -4 8 -9 7 -14 -2 -6 -9
-16 -4 -36 20 -15 19 -33 30 -41 27 -8 -3 -11 -1 -8 4 10 16 77 9 71 -7z
m-251 -13 c3 -5 1 -10 -4 -10 -6 0 -11 5 -11 10 0 6 2 10 4 10 3 0 8 -4 11
-10z m340 -54 c0 -15 -4 -21 -9 -16 -5 5 -6 16 -3 24 9 22 12 20 12 -8z m-47
-13 c2 -7 -1 -13 -8 -13 -6 0 -9 4 -5 9 3 5 -3 12 -12 15 -15 4 -15 5 1 3 11
-1 21 -8 24 -14z m-1 -45 c-3 -8 -6 -5 -6 6 -1 11 2 17 5 13 3 -3 4 -12 1 -19z
m33 -8 c0 -5 -2 -10 -4 -10 -3 0 -8 5 -11 10 -3 6 -1 10 4 10 6 0 11 -4 11
-10z"/>
<path d="M960 2879 c0 -5 11 -9 25 -9 14 0 25 2 25 4 0 2 -11 6 -25 8 -14 3
-25 1 -25 -3z"/>
<path d="M2170 2880 c24 -8 147 -14 139 -6 -2 2 -40 6 -84 9 -46 3 -69 2 -55
-3z"/>
<path d="M893 2863 c9 -2 23 -2 30 0 6 3 -1 5 -18 5 -16 0 -22 -2 -12 -5z"/>
<path d="M1191 2867 c2 -1 12 -9 22 -16 14 -12 17 -11 17 3 0 10 -8 16 -22 16
-12 0 -19 -1 -17 -3z"/>
<path d="M2211 2850 c14 -4 43 -4 65 0 35 7 32 8 -26 8 -46 0 -58 -2 -39 -8z"/>
<path d="M2435 2850 c4 -6 11 -8 16 -5 14 9 11 15 -7 15 -8 0 -12 -5 -9 -10z"/>
<path d="M1490 2830 c20 -13 40 -13 40 0 0 6 -12 10 -27 10 -22 0 -25 -2 -13
-10z"/>
<path d="M2850 2833 c1 -9 57 -73 65 -73 4 0 3 5 -1 12 -5 8 3 9 29 5 21 -3
37 -2 37 4 0 5 -5 9 -11 9 -8 0 -7 6 2 17 12 15 12 16 -3 10 -10 -3 -18 -3
-18 1 0 4 -8 8 -17 8 -10 0 -33 4 -50 8 -18 4 -33 4 -33 -1z"/>
<path d="M910 2809 c9 -16 14 -18 20 -9 10 16 24 -5 16 -25 -3 -9 1 -15 9 -15
10 0 13 9 10 33 -3 28 -2 30 9 15 7 -10 19 -18 25 -18 7 0 11 8 9 18 -2 13
-15 18 -56 20 -52 3 -53 3 -42 -19z"/>
<path d="M2433 2813 c-13 -2 -23 -9 -23 -15 0 -6 7 -7 18 -2 9 4 34 7 55 6 23
-1 35 2 32 8 -6 10 -40 11 -82 3z"/>
<path d="M2264 2799 c-2 -4 13 -9 34 -13 45 -7 112 -7 93 1 -11 5 -11 7 0 14
8 5 -14 7 -54 6 -38 -1 -71 -5 -73 -8z"/>
<path d="M3015 2790 c3 -5 8 -10 11 -10 2 0 4 5 4 10 0 6 -5 10 -11 10 -5 0
-7 -4 -4 -10z"/>
<path d="M3185 2780 c3 -5 12 -10 20 -10 8 0 17 5 20 10 4 6 -5 10 -20 10 -15
0 -24 -4 -20 -10z"/>
<path d="M2328 2763 c6 -2 18 -2 25 0 6 3 1 5 -13 5 -14 0 -19 -2 -12 -5z"/>
<path d="M2390 2759 c0 -5 5 -7 10 -4 6 3 10 8 10 11 0 2 -4 4 -10 4 -5 0 -10
-5 -10 -11z"/>
<path d="M3220 2750 c0 -5 7 -10 15 -10 8 0 15 5 15 10 0 6 -7 10 -15 10 -8 0
-15 -4 -15 -10z"/>
<path d="M2330 2735 c0 -8 2 -15 4 -15 2 0 6 7 10 15 3 8 1 15 -4 15 -6 0 -10
-7 -10 -15z"/>
<path d="M3245 2720 c3 -5 11 -10 16 -10 6 0 7 5 4 10 -3 6 -11 10 -16 10 -6
0 -7 -4 -4 -10z"/>
<path d="M1402 2703 c-19 -7 -4 -23 24 -23 15 0 24 6 24 15 0 15 -22 19 -48 8z"/>
<path d="M2375 2680 c3 -5 10 -10 16 -10 5 0 9 5 9 10 0 6 -7 10 -16 10 -8 0
-12 -4 -9 -10z"/>
<path d="M3445 2640 c-3 -5 1 -10 9 -10 9 0 16 5 16 10 0 6 -4 10 -9 10 -6 0
-13 -4 -16 -10z"/>
<path d="M1498 2623 c19 -4 21 -7 11 -19 -9 -11 -7 -14 16 -14 22 0 25 3 16
14 -9 11 -9 15 1 18 7 3 -5 5 -27 5 -22 0 -30 -2 -17 -4z"/>
<path d="M1520 2570 c0 -6 7 -13 15 -16 14 -6 14 -8 -1 -19 -15 -11 -15 -12
-1 -18 18 -7 77 10 77 22 0 5 -8 15 -18 24 -20 19 -72 23 -72 7z"/>
<path d="M2991 2558 c-10 -16 -10 -23 -2 -26 6 -2 11 -10 11 -18 0 -8 9 -14
20 -14 11 0 20 -4 20 -9 0 -13 -34 -23 -52 -16 -11 4 -18 -2 -23 -22 -5 -15
-7 -34 -6 -41 1 -7 -7 -29 -18 -48 -12 -19 -21 -40 -21 -46 0 -15 -48 -71 -74
-85 -26 -15 -71 -16 -97 -3 -16 9 -19 7 -19 -9 0 -16 -9 -21 -47 -26 -27 -3
-61 -10 -78 -17 -16 -6 -49 -13 -72 -15 -43 -5 -43 -5 -43 27 0 26 -3 31 -16
26 -9 -4 -31 -4 -48 0 -42 7 -44 39 -3 42 16 1 38 9 49 16 18 13 18 14 1 18
-30 8 -97 -3 -82 -13 10 -6 7 -9 -11 -9 -20 0 -22 -2 -10 -10 13 -8 13 -11 1
-22 -11 -10 -14 -10 -18 0 -3 7 -20 11 -41 11 -24 -1 -29 -3 -14 -6 12 -2 22
-8 22 -13 0 -4 23 -11 50 -15 33 -5 50 -12 50 -21 0 -8 -8 -14 -17 -15 -14 0
-15 -2 -3 -6 8 -3 20 -10 27 -15 19 -15 -9 -38 -37 -31 -13 3 -25 1 -30 -7 -6
-9 -12 -9 -30 0 -12 6 -28 9 -36 6 -18 -7 -14 15 6 31 23 19 -6 16 -36 -4 -19
-12 -22 -18 -12 -24 9 -6 8 -9 -7 -9 -15 -1 -12 -4 12 -15 17 -7 42 -11 55 -9
17 4 16 2 -7 -9 -21 -10 -26 -15 -16 -21 8 -5 16 -4 21 3 10 18 43 9 56 -14 5
-11 18 -19 27 -17 11 2 15 -2 11 -12 -3 -8 -15 -16 -26 -18 -25 -4 -24 1 -32
-208 -9 -214 -14 -303 -21 -365 -3 -27 -7 -90 -10 -140 -3 -49 -12 -128 -19
-175 -13 -81 -14 -82 -16 -35 l-2 50 -9 -55 c-5 -30 -11 -72 -13 -93 -7 -60
-17 -58 -18 3 0 98 -14 327 -16 272 -1 -29 -10 -69 -21 -90 -51 -100 -80 -292
-45 -292 8 0 14 8 14 18 0 10 10 47 21 81 28 83 36 67 42 -79 3 -78 8 -115 16
-114 48 4 44 -7 106 300 45 222 48 230 129 332 53 66 72 78 62 37 -10 -39 6
-30 49 28 71 93 236 250 303 287 103 57 252 179 309 253 21 27 24 28 57 16 25
-9 44 -10 63 -3 39 13 38 28 -2 43 -41 14 -46 43 -17 82 10 13 22 32 25 42 6
15 10 16 28 7 36 -20 99 1 99 33 0 1 -54 2 -120 2 -66 0 -120 -4 -120 -8 0 -5
-4 -5 -10 -2 -20 12 -10 25 19 25 16 0 36 6 43 14 19 19 74 46 93 46 11 0 15
11 15 45 l0 45 46 0 c25 0 54 5 65 10 26 14 25 50 -1 50 -38 0 -78 28 -90 64
-11 34 -31 46 -77 46 -13 0 -23 -5 -23 -11 0 -7 -11 -9 -30 -6 -32 7 -60 0
-60 -14 0 -5 7 -9 15 -9 19 0 20 -24 1 -39 -11 -9 -22 -8 -47 3 -19 9 -53 20
-76 26 -24 6 -43 15 -43 20 0 13 13 13 27 -1 6 -6 19 -9 29 -7 16 3 13 7 -13
21 -46 24 -95 22 -112 -5z m344 -38 c32 -33 31 -35 -13 -19 -21 7 -30 17 -29
30 2 26 8 24 42 -11z m20 -50 c3 -5 2 -10 -4 -10 -5 0 -13 5 -16 10 -3 6 -2
10 4 10 5 0 13 -4 16 -10z m-282 -7 c-7 -2 -19 -2 -25 0 -7 3 -2 5 12 5 14 0
19 -2 13 -5z m288 -25 c12 -18 11 -26 -2 -34 -13 -8 -87 26 -93 44 -7 17 84 8
95 -10z m129 12 c0 -5 -5 -10 -11 -10 -5 0 -7 5 -4 10 3 6 8 10 11 10 2 0 4
-4 4 -10z m-337 -30 c-6 -24 -63 -29 -63 -6 0 16 15 24 47 25 16 1 20 -3 16
-19z m-99 -26 c22 -22 11 -34 -30 -34 -26 0 -33 3 -27 13 4 6 8 15 9 20 1 4 2
9 3 12 2 11 30 4 45 -11z m250 -39 c21 -32 20 -33 -9 -28 -34 7 -54 31 -34 44
21 13 25 11 43 -16z m-97 -48 c3 -4 -19 -7 -51 -7 -31 0 -76 -5 -99 -10 -27
-7 -57 -8 -82 -2 l-40 9 35 6 c136 23 216 24 237 4z m33 -11 c0 -3 -4 -8 -10
-11 -5 -3 -10 -1 -10 4 0 6 5 11 10 11 6 0 10 -2 10 -4z m-335 -55 c-3 -6 -11
-11 -17 -11 -6 0 -6 6 2 15 14 17 26 13 15 -4z m15 -35 c0 -2 -12 -11 -27 -20
l-28 -17 24 20 c23 21 31 25 31 17z m-122 -13 c-10 -2 -26 -2 -35 0 -10 3 -2
5 17 5 19 0 27 -2 18 -5z m320 -4 c-6 -18 -88 -46 -116 -41 l-26 5 25 10 c13
6 31 9 40 8 9 -1 22 5 29 14 14 17 54 21 48 4z m-661 -5 c-3 -3 -12 -4 -19 -1
-8 3 -5 6 6 6 11 1 17 -2 13 -5z m247 -13 c3 -4 3 -11 0 -14 -8 -8 -34 3 -34
14 0 11 27 12 34 0z m-211 -28 c-7 -2 -19 -2 -25 0 -7 3 -2 5 12 5 14 0 19 -2
13 -5z m-13 -33 c0 -5 -5 -10 -11 -10 -5 0 -7 5 -4 10 3 6 8 10 11 10 2 0 4
-4 4 -10z m73 3 c-7 -2 -19 -2 -25 0 -7 3 -2 5 12 5 14 0 19 -2 13 -5z m125
-18 c4 -4 -9 -6 -29 -3 -30 3 -36 1 -31 -12 5 -13 3 -13 -11 -1 -9 7 -17 18
-17 23 0 10 78 4 88 -7z m-143 -5 c3 -5 1 -10 -4 -10 -6 0 -11 5 -11 10 0 6 2
10 4 10 3 0 8 -4 11 -10z m605 -10 c0 -5 -7 -7 -15 -4 -8 4 -15 8 -15 10 0 2
7 4 15 4 8 0 15 -4 15 -10z m-740 -4 c0 -3 -4 -8 -10 -11 -5 -3 -10 -1 -10 4
0 6 5 11 10 11 6 0 10 -2 10 -4z m60 -30 c0 -24 -25 -43 -35 -26 -6 10 16 50
27 50 5 0 8 -11 8 -24z m865 14 c3 -5 1 -10 -4 -10 -6 0 -11 5 -11 10 0 6 2
10 4 10 3 0 8 -4 11 -10z m-472 -30 c-7 -26 15 -26 64 0 41 22 73 26 73 10 0
-5 -9 -10 -20 -10 -11 0 -20 -4 -20 -10 0 -5 9 -10 19 -10 33 0 51 -11 51 -31
0 -10 -4 -19 -10 -19 -5 0 -10 4 -10 9 0 5 -43 8 -96 7 -93 -2 -95 -3 -113
-32 -10 -16 -33 -42 -51 -59 -65 -60 -82 -81 -101 -117 -10 -20 -29 -47 -42
-60 -12 -13 -55 -62 -96 -110 -40 -49 -75 -88 -78 -88 -5 0 6 105 14 134 3 11
1 16 -5 12 -14 -9 -23 22 -9 31 15 10 15 11 33 198 3 39 9 88 13 110 l7 40
129 -3 c85 -1 149 3 185 12 63 15 70 14 63 -14z m300 -4 c51 -12 28 -26 -44
-26 -52 0 -70 3 -67 13 5 14 71 38 78 27 3 -4 17 -10 33 -14z m-208 -101 c-16
-7 -32 -11 -35 -9 -7 8 24 24 45 23 15 0 13 -4 -10 -14z m-118 -121 c-3 -3
-12 -4 -19 -1 -8 3 -5 6 6 6 11 1 17 -2 13 -5z m-127 -41 c0 -5 -11 -21 -25
-38 -31 -38 -33 -41 -75 -95 -32 -41 -56 -64 -70 -65 -3 0 -11 -4 -17 -8 -18
-12 -16 3 6 38 16 25 101 116 153 162 15 14 28 16 28 6z m-443 -960 c-3 -10
-5 -4 -5 12 0 17 2 24 5 18 2 -7 2 -21 0 -30z"/>
<path d="M3147 2546 c-5 -12 1 -16 23 -16 17 0 30 5 30 10 0 6 -4 10 -9 10 -5
0 -16 3 -24 6 -8 3 -17 -2 -20 -10z"/>
<path d="M1475 2520 c3 -5 11 -10 16 -10 6 0 7 5 4 10 -3 6 -11 10 -16 10 -6
0 -7 -4 -4 -10z"/>
<path d="M2376 2494 c-10 -26 -7 -62 7 -67 10 -4 10 -6 0 -6 -7 -1 -13 -12
-13 -25 0 -13 6 -26 13 -29 20 -7 49 13 43 29 -4 12 -1 14 14 9 14 -5 20 -2
20 10 0 9 -3 14 -7 12 -5 -3 -14 1 -21 9 -7 8 -9 14 -5 14 4 0 1 5 -7 11 -13
8 -12 9 4 7 10 -2 21 3 23 10 3 9 -6 11 -34 8 -21 -2 -32 -2 -25 1 14 5 17 23
3 23 -5 0 -12 -7 -15 -16z m29 -104 c-3 -5 -12 -10 -18 -10 -7 0 -6 4 3 10 19
12 23 12 15 0z"/>
<path d="M2155 2360 c4 -6 11 -8 16 -5 14 9 11 15 -7 15 -8 0 -12 -5 -9 -10z"/>
<path d="M2370 2340 c0 -5 5 -10 10 -10 6 0 10 5 10 10 0 6 -4 10 -10 10 -5 0
-10 -4 -10 -10z"/>
<path d="M2195 2290 c-3 -5 1 -10 10 -10 9 0 13 5 10 10 -3 6 -8 10 -10 10 -2
0 -7 -4 -10 -10z"/>
<path d="M2240 2289 c0 -5 9 -9 20 -9 11 0 20 2 20 4 0 2 -9 6 -20 9 -11 3
-20 1 -20 -4z"/>
<path d="M2280 2190 c-9 -6 -10 -10 -3 -10 6 0 15 5 18 10 8 12 4 12 -15 0z"/>
<path d="M2310 1990 c0 -5 7 -10 15 -10 8 0 15 5 15 10 0 6 -7 10 -15 10 -8 0
-15 -4 -15 -10z"/>
<path d="M2231 1974 c0 -11 3 -14 6 -6 3 7 2 16 -1 19 -3 4 -6 -2 -5 -13z"/>
<path d="M2327 1963 c-11 -10 -8 -73 3 -73 6 0 10 18 10 40 0 41 -2 45 -13 33z"/>
<path d="M2323 1860 c3 -11 2 -20 -1 -20 -4 0 -6 -34 -5 -75 1 -42 -1 -74 -5
-71 -4 2 -8 -17 -8 -43 -1 -25 1 -37 3 -26 3 11 9 25 13 30 4 6 11 58 14 118
6 80 4 107 -4 107 -7 0 -10 -8 -7 -20z"/>
<path d="M2233 1820 c0 -25 2 -35 4 -22 2 12 2 32 0 45 -2 12 -4 2 -4 -23z"/>
<path d="M2222 1410 c0 -14 2 -19 5 -12 2 6 2 18 0 25 -3 6 -5 1 -5 -13z"/>
<path d="M2281 1174 c0 -11 3 -14 6 -6 3 7 2 16 -1 19 -3 4 -6 -2 -5 -13z"/>
<path d="M2124 825 c-7 -29 2 -75 15 -75 11 0 21 35 21 73 0 35 -27 37 -36 2z"/>
<path d="M2200 576 c0 -2 8 -10 18 -17 15 -13 16 -12 3 4 -13 16 -21 21 -21
13z"/>
</g>
</svg>
